<?xml version="1.0" encoding="UTF-8" standalone="no"?>
<!-- Created with Inkscape (http://www.inkscape.org/) -->

<svg
   xmlns:dc="http://purl.org/dc/elements/1.1/"
   xmlns:cc="http://creativecommons.org/ns#"
   xmlns:rdf="http://www.w3.org/1999/02/22-rdf-syntax-ns#"
   xmlns:svg="http://www.w3.org/2000/svg"
   xmlns="http://www.w3.org/2000/svg"
   xmlns:sodipodi="http://sodipodi.sourceforge.net/DTD/sodipodi-0.dtd"
   xmlns:inkscape="http://www.inkscape.org/namespaces/inkscape"
   width="1048.36"
   height="744.09448"
   id="svg2"
   version="1.1"
   inkscape:version="0.48.4 r9939"
   inkscape:export-filename="/home/xaviju/Desktop/image_design/django_tits.png"
   inkscape:export-xdpi="90"
   inkscape:export-ydpi="90"
   sodipodi:docname="django_tits.svg">
  <defs
     id="defs4" />
  <sodipodi:namedview
     id="base"
     pagecolor="#ffffff"
     bordercolor="#666666"
     borderopacity="1.0"
     inkscape:pageopacity="0.0"
     inkscape:pageshadow="2"
     inkscape:zoom="1.4"
     inkscape:cx="768.3052"
     inkscape:cy="548.91235"
     inkscape:document-units="px"
     inkscape:current-layer="text3012"
     showgrid="false"
     inkscape:window-width="1680"
     inkscape:window-height="992"
     inkscape:window-x="0"
     inkscape:window-y="31"
     inkscape:window-maximized="1"
     showguides="false"
     inkscape:guide-bbox="true">
    <sodipodi:guide
       orientation="1,0"
       position="659.88215,475.27677"
       id="guide3954" />
    <sodipodi:guide
       orientation="0,1"
       position="696.42857,441.78571"
       id="guide3977" />
    <sodipodi:guide
       orientation="0,1"
       position="686.42857,465.71429"
       id="guide3979" />
    <sodipodi:guide
       orientation="1,0"
       position="511.78572,483.57143"
       id="guide3981" />
  </sodipodi:namedview>
  <metadata
     id="metadata7">
    <rdf:RDF>
      <cc:Work
         rdf:about="">
        <dc:format>image/svg+xml</dc:format>
        <dc:type
           rdf:resource="http://purl.org/dc/dcmitype/StillImage" />
        <dc:title></dc:title>
      </cc:Work>
    </rdf:RDF>
  </metadata>
  <g
     inkscape:label="Layer 1"
     inkscape:groupmode="layer"
     id="layer1"
     transform="translate(0,-308.26769)">
    <g
       id="g3983"
       inkscape:export-filename="/home/xaviju/Desktop/image_design/django_tits.png"
       inkscape:export-xdpi="90"
       inkscape:export-ydpi="90"
       transform="translate(-8.9285714,3.5714286)">
      <g
         inkscape:export-ydpi="90"
         inkscape:export-xdpi="90"
         inkscape:export-filename="/home/xaviju/Desktop/image_design/django_tits.png"
         transform="matrix(2.4558579,0,0,2.4558579,-745.32798,-890.61034)"
         id="text3012"
         style="font-size:33.83113098px;font-style:normal;font-weight:normal;line-height:125%;letter-spacing:0px;word-spacing:0px;fill:#4d4d4d;fill-opacity:1;stroke:none;font-family:Sans">
        <g
           id="g4164"
           inkscape:export-filename="/home/xaviju/Desktop/image_design/django_fart.png"
           inkscape:export-xdpi="90"
           inkscape:export-ydpi="90">
          <text
             xml:space="preserve"
             style="font-size:57.51341247999999950px;font-style:normal;font-weight:normal;line-height:125%;letter-spacing:0px;word-spacing:0px;fill:#cccccc;fill-opacity:1;stroke:none;font-family:Sans"
             x="509.62073"
             y="556.86353"
             id="text2985"
             sodipodi:linespacing="125%"
             inkscape:export-filename="/home/xaviju/Desktop/image_design/django_tits.png"
             inkscape:export-xdpi="90"
             inkscape:export-ydpi="90"
             transform="matrix(0.40718968,0,0,0.40718968,303.48986,362.64734)"><tspan
               sodipodi:role="line"
               x="509.62073"
               y="556.86353"
               style="font-size:18.26796532px;font-style:normal;font-variant:normal;font-weight:normal;font-stretch:normal;text-align:start;text-anchor:start;fill:#cccccc;font-family:Nimbus Sans L;-inkscape-font-specification:Nimbus Sans L"
               id="tspan3008">Fast Authentication Request over Token</tspan></text>
          <rect
             ry="3.7298057"
             y="555.26459"
             x="649.2724"
             height="26.907887"
             width="76.727432"
             id="rect4078"
             style="fill:#55d400;fill-opacity:1;stroke:none" />
          <path
             d="m 515.52641,576.8709 0,-16.81407 5.07467,0 c 5.48064,0 8.25479,4.22889 8.25479,8.42395 0,4.19505 -2.77415,8.39012 -8.25479,8.39012 l -5.07467,0 m -3.41695,-20.23102 0,23.64796 8.49162,0 c 7.74732,0 11.63791,-5.88662 11.63791,-11.80706 0,-5.92044 -3.89059,-11.8409 -11.63791,-11.8409 l -8.49162,0"
             style="font-variant:normal;font-stretch:normal;text-align:end;text-anchor:end;fill:#4d4d4d;font-family:Code Pro Demo;-inkscape-font-specification:Code Pro Demo"
             id="path3877"
             inkscape:connector-curvature="0" />
          <path
             d="m 545.05781,556.63988 -9.81102,0 0,3.38311 6.39408,0 0,10.01402 c 0,4.70252 -4.26273,6.83389 -9.64187,6.83389 l 0,3.41694 c 7.27368,0 13.05881,-3.21396 13.05881,-10.25083 l 0,-13.39713"
             style="font-variant:normal;font-stretch:normal;text-align:end;text-anchor:end;fill:#4d4d4d;font-family:Code Pro Demo;-inkscape-font-specification:Code Pro Demo"
             id="path3879"
             inkscape:connector-curvature="0" />
          <path
             d="m 556.75123,561.74838 2.90948,8.35629 -5.88662,0 2.97714,-8.35629 m 7.07071,18.53946 3.65376,0 -9.50655,-23.98627 -2.5035,0 -9.50655,23.98627 3.68759,0 c 0.74429,-1.9622 1.92838,-4.80402 2.84182,-6.96921 l 8.49161,0 2.84182,6.96921"
             style="font-variant:normal;font-stretch:normal;text-align:end;text-anchor:end;fill:#4d4d4d;font-family:Code Pro Demo;-inkscape-font-specification:Code Pro Demo"
             id="path3881"
             inkscape:connector-curvature="0" />
          <path
             d="m 572.64869,580.28784 0,-16.54342 11.43492,16.54342 2.70649,0 0,-23.68179 -3.38311,0 0,16.67875 -11.53642,-16.67875 -2.63883,-0.0338 0,23.71562 3.41695,0"
             style="font-variant:normal;font-stretch:normal;text-align:end;text-anchor:end;fill:#4d4d4d;font-family:Code Pro Demo;-inkscape-font-specification:Code Pro Demo"
             id="path3883"
             inkscape:connector-curvature="0" />
          <path
             d="m 612.97222,565.09766 c -1.25175,-6.29258 -6.7324,-8.62693 -11.26577,-8.62693 -6.5294,0 -11.6379,5.00701 -11.6379,12.01005 0,6.9692 5.00701,11.97622 11.6379,11.97622 4.29655,0 9.16824,-2.90948 10.79214,-7.44285 l 0,0.0338 c 0.30448,-0.77812 0.47363,-2.09753 0.64279,-4.09357 l -12.75434,0 0,3.41695 8.76226,0 c -1.4209,3.45077 -4.53337,4.80402 -7.44285,4.80402 -4.63486,0 -8.22096,-3.6876 -8.22096,-8.6946 0,-4.97317 3.5861,-8.59311 8.22096,-8.59311 3.01097,0 6.66474,1.38708 7.61201,5.20999 l 3.65376,0"
             style="font-variant:normal;font-stretch:normal;text-align:end;text-anchor:end;fill:#4d4d4d;font-family:Code Pro Demo;-inkscape-font-specification:Code Pro Demo"
             id="path3885"
             inkscape:connector-curvature="0" />
          <path
             d="m 637.51158,568.7403 c 0,2.63102 -1.05971,4.93318 -2.70412,6.61411 -1.71747,1.71748 -4.09271,2.7772 -6.61412,2.7772 -2.52139,0 -4.86009,-1.05972 -6.54103,-2.7772 -1.68093,-1.68093 -2.74065,-4.01963 -2.74065,-6.61411 0,-2.59449 1.05972,-4.93319 2.74065,-6.61412 1.68094,-1.71748 4.01964,-2.7772 6.54103,-2.7772 2.52141,0 4.89665,1.05972 6.61412,2.7772 1.64441,1.68093 2.70412,3.98309 2.70412,6.61412 m -22.32722,0 c 0,3.61766 1.49823,6.86991 3.80039,9.24514 2.33869,2.41177 5.62748,3.87346 9.20859,3.87346 3.61767,0 6.86993,-1.46169 9.24515,-3.87346 2.30216,-2.37523 3.80039,-5.62748 3.80039,-9.24514 0,-3.61767 -1.49823,-6.86993 -3.80039,-9.24515 -2.37522,-2.37523 -5.62748,-3.87346 -9.24515,-3.87346 -3.58111,0 -6.8699,1.49823 -9.20859,3.87346 -2.30216,2.37522 -3.80039,5.62748 -3.80039,9.24515"
             style="font-variant:normal;font-stretch:normal;text-align:end;text-anchor:end;fill:#4d4d4d;font-family:Code Pro Demo;-inkscape-font-specification:Code Pro Demo"
             id="path3887"
             inkscape:connector-curvature="0" />
          <path
             inkscape:connector-curvature="0"
             id="path3172"
             d="m 631.71591,579.67258 c 1.2048,0.45323 2.49452,0.7344 3.84686,0.7344 3.0683,0 5.81907,-1.24179 7.83361,-3.28731 1.95255,-2.01454 3.22903,-4.77698 3.22903,-7.84527 0,-3.0683 -1.27648,-5.81907 -3.22903,-7.83361 -2.01454,-2.01453 -4.76531,-3.28731 -7.83361,-3.28731 -1.35261,0 -2.64186,0.28857 -3.84686,0.74605 0.15068,0.0571 0.31879,0.0765 0.46629,0.13988 0.66247,0.28476 1.28696,0.63507 1.8768,1.03749 0.53501,0.36503 1.0275,0.78674 1.49211,1.23567 0.004,-1e-5 0.007,0 0.0116,0 2.13851,0 4.15043,0.89807 5.60709,2.35474 1.39468,1.42567 2.29647,3.3756 2.29647,5.60709 0,2.23148 -0.90179,4.19308 -2.29647,5.61875 -1.45666,1.45667 -3.46858,2.35474 -5.60709,2.35474 -0.004,0 -0.007,10e-6 -0.0116,0 -0.46475,0.4555 -0.95691,0.88085 -1.49211,1.24732 -0.58984,0.40387 -1.21433,0.75468 -1.8768,1.03749 -0.14774,0.063 -0.31535,0.0833 -0.46629,0.13988 z"
             style="font-size:33.83113098px;font-style:normal;font-variant:normal;font-weight:normal;font-stretch:normal;text-align:end;line-height:125%;letter-spacing:0px;word-spacing:0px;text-anchor:end;fill:#4d4d4d;fill-opacity:1;stroke:none;font-family:Code Pro Demo;-inkscape-font-specification:Code Pro Demo" />
          <text
             sodipodi:linespacing="125%"
             id="text4074"
             y="578.88733"
             x="654.22034"
             style="font-size:27.54616928px;font-style:normal;font-weight:normal;line-height:125%;letter-spacing:0px;word-spacing:0px;fill:#ffffff;fill-opacity:1;stroke:none;font-family:Sans"
             xml:space="preserve"><tspan
               y="578.88733"
               x="654.22034"
               id="tspan4076"
               sodipodi:role="line">FART</tspan></text>
          <path
             sodipodi:nodetypes="csccc"
             transform="matrix(0.40718968,0,0,0.40718968,307.12549,486.71652)"
             inkscape:connector-curvature="0"
             id="path4080"
             d="m 820.62267,201.64257 c 0,0 8.94041,0.0709 14.39468,-2.90419 5.55584,-3.03046 8.33376,-12.75318 8.33376,-12.75318 l -1.13643,29.67323 z"
             style="fill:#55d400;stroke:none;stroke-width:1px;stroke-linecap:butt;stroke-linejoin:miter;stroke-opacity:1;fill-opacity:1" />
          <path
             transform="matrix(0.40718968,0,0,0.40718968,314.68357,502.34682)"
             d="m 786.53,153.91286 a 0.88388348,0.88388348 0 1 1 -1.76777,0 0.88388348,0.88388348 0 1 1 1.76777,0 z"
             sodipodi:ry="0.88388348"
             sodipodi:rx="0.88388348"
             sodipodi:cy="153.91286"
             sodipodi:cx="785.64612"
             id="path4082"
             style="fill:#4d4d4d;fill-opacity:1;stroke:none"
             sodipodi:type="arc" />
          <path
             transform="matrix(0.18454587,0,0,0.18454587,509.17131,544.20911)"
             d="m 688.92857,141.77306 a 2.6785715,2.6785715 0 1 1 -5.35714,0 2.6785715,2.6785715 0 1 1 5.35714,0 z"
             sodipodi:ry="2.6785715"
             sodipodi:rx="2.6785715"
             sodipodi:cy="141.77306"
             sodipodi:cx="686.25"
             id="path3178-26"
             style="font-size:33.83113098px;font-style:normal;font-weight:normal;line-height:125%;letter-spacing:0px;word-spacing:0px;fill:#4d4d4d;fill-opacity:1;stroke:none;font-family:Sans"
             sodipodi:type="arc" />
          <path
             transform="matrix(0.18454587,0,0,0.18454587,509.1858,542.04067)"
             d="m 688.92857,141.77306 a 2.6785715,2.6785715 0 1 1 -5.35714,0 2.6785715,2.6785715 0 1 1 5.35714,0 z"
             sodipodi:ry="2.6785715"
             sodipodi:rx="2.6785715"
             sodipodi:cy="141.77306"
             sodipodi:cx="686.25"
             id="path3178-1"
             style="font-size:33.83113098px;font-style:normal;font-weight:normal;line-height:125%;letter-spacing:0px;word-spacing:0px;fill:#4d4d4d;fill-opacity:1;stroke:none;font-family:Sans"
             sodipodi:type="arc" />
          <path
             transform="matrix(0.18454587,0,0,0.18454587,508.96839,540.29011)"
             d="m 688.92857,141.77306 a 2.6785715,2.6785715 0 1 1 -5.35714,0 2.6785715,2.6785715 0 1 1 5.35714,0 z"
             sodipodi:ry="2.6785715"
             sodipodi:rx="2.6785715"
             sodipodi:cy="141.77306"
             sodipodi:cx="686.25"
             id="path3178-4"
             style="font-size:33.83113098px;font-style:normal;font-weight:normal;line-height:125%;letter-spacing:0px;word-spacing:0px;fill:#4d4d4d;fill-opacity:1;stroke:none;font-family:Sans"
             sodipodi:type="arc" />
          <path
             transform="matrix(0.18454587,0,0,0.18454587,507.85831,542.94891)"
             d="m 688.92857,141.77306 a 2.6785715,2.6785715 0 1 1 -5.35714,0 2.6785715,2.6785715 0 1 1 5.35714,0 z"
             sodipodi:ry="2.6785715"
             sodipodi:rx="2.6785715"
             sodipodi:cy="141.77306"
             sodipodi:cx="686.25"
             id="path3178-04"
             style="font-size:33.83113098px;font-style:normal;font-weight:normal;line-height:125%;letter-spacing:0px;word-spacing:0px;fill:#4d4d4d;fill-opacity:1;stroke:none;font-family:Sans"
             sodipodi:type="arc" />
          <path
             transform="matrix(0.18454587,0,0,0.18454587,508.1668,545.67361)"
             d="m 688.92857,141.77306 a 2.6785715,2.6785715 0 1 1 -5.35714,0 2.6785715,2.6785715 0 1 1 5.35714,0 z"
             sodipodi:ry="2.6785715"
             sodipodi:rx="2.6785715"
             sodipodi:cy="141.77306"
             sodipodi:cx="686.25"
             id="path3178-48"
             style="font-size:33.83113097999999752px;font-style:normal;font-weight:normal;line-height:125%;letter-spacing:0px;word-spacing:0px;fill:#4d4d4d;fill-opacity:1;stroke:none;font-family:Sans"
             sodipodi:type="arc" />
        </g>
      </g>
    </g>
  </g>
</svg>
